<?xml version="1.0" encoding="utf-8"?>
<!-- Generator: Adobe Illustrator 23.1.0, SVG Export Plug-In . SVG Version: 6.00 Build 0)  -->
<svg version="1.1" id="Layer_1" xmlns="http://www.w3.org/2000/svg" xmlns:xlink="http://www.w3.org/1999/xlink" x="0px" y="0px"
	 viewBox="0 0 194 67.4" style="enable-background:new 0 0 194 67.4;" xml:space="preserve">
<style type="text/css">
	.st0{clip-path:url(#SVGID_2_);}
	.st1{clip-path:url(#SVGID_2_);fill:#00B6D6;}
	.st2{clip-path:url(#SVGID_4_);fill:url(#SVGID_5_);}
</style>
<g>
	<defs>
		<rect id="SVGID_1_" x="-199" y="-93.3" width="424.9" height="321.3"/>
	</defs>
	<clipPath id="SVGID_2_">
		<use xlink:href="#SVGID_1_"  style="overflow:visible;"/>
	</clipPath>
	<path class="st0" d="M87.2,32.2c2-3.3,3.8-6.8,5.3-10.4c1.5,3.6,3.3,7.1,5.3,10.4h4.6c-2.5-4-4.7-8.2-6.5-12.5h6.4v-3.8h-7.8v-4.6
		h-4.2v4.6h-7.8v3.8h6.5c-1.8,4.4-4,8.6-6.5,12.5H87.2z M109.2,34.9h4V12.5h-4v9.2H103v3.8h6.2V34.9z M169.8,28.2
		c5.1,0,8.6-3.2,8.6-8.2c0-5-3.5-8.2-8.6-8.2c-5.1,0-8.6,3.2-8.6,8.2C161.2,25,164.7,28.2,169.8,28.2 M169.8,15.4
		c2.8,0,4.7,1.8,4.7,4.6c0,2.8-1.9,4.6-4.7,4.6c-2.8,0-4.7-1.8-4.7-4.6C165.1,17.2,167.1,15.4,169.8,15.4 M147.5,34.9h4V12.5h-4v9.2
		h-6.2v3.8h6.2V34.9z M125.2,32.2c2.3-3.8,4.3-7.8,5.9-12c1.7,4.2,3.6,8.2,5.9,12h4.7c-2.8-4.5-5.2-9.2-7.2-14.2h6.1v-3.7h-19.7V18
		h6.8c-2,5-4.3,9.7-7.2,14.2H125.2z M131.3,45.7c0,5.6,3.9,9.3,9.7,9.3c5.8,0,9.7-3.6,9.7-9.3c0-5.6-4-9.3-9.7-9.3
		C135.2,36.4,131.3,40.1,131.3,45.7 M146.7,45.7c0,3.3-2.3,5.5-5.7,5.5c-3.3,0-5.6-2.2-5.6-5.5c0-3.3,2.3-5.5,5.6-5.5
		C144.4,40.2,146.7,42.4,146.7,45.7 M177.8,34.7h7.9v7.6h4V12.5h-4v18.4h-7.9V34.7z M102.6,36.4c-5.8,0-9.7,3.7-9.7,9.3
		c0,5.6,4,9.3,9.7,9.3c5.8,0,9.7-3.6,9.7-9.3C112.3,40.1,108.3,36.4,102.6,36.4 M102.6,51.3c-3.4,0-5.7-2.2-5.7-5.5
		c0-3.3,2.3-5.5,5.7-5.5c3.3,0,5.6,2.2,5.6,5.5C108.2,49.1,105.9,51.3,102.6,51.3 M167.2,47.8c3.1-5.3,5.7-10.9,7.7-16.9h-16.3v3.8
		h10.5c-1.2,3.4-3.5,8-6.7,13.1H167.2z M177.2,49.9v-7.7h-4v11.5H190v-3.8H177.2z"/>
	<path class="st1" d="M38.5,63.1V45.5l-0.7-0.3c-5,0.8-10.1,0.2-12-0.4c-2.8-5.3-4.9-14.9,1.6-20.3c6.9-5.6,16.8-5,23.6-4.9l9.2-9.2
		c-5.5-5.4-13.1-8.3-22.4-8.3c-18.5,0-31.2,12-31.2,30.7c0,18.7,12.7,30.6,31.2,30.6c0.1,0-0.1,0,0,0L38.5,63.1z"/>
</g>
<g>
	<defs>
		<path id="SVGID_3_" d="M51,19.6L51,19.6c1.1,5.8,2.2,12.9-1,18.1c-2.1,3.3-5.3,6.3-12.2,7.5l0,18.2C56.1,63.3,69,51.4,69,32.8
			c0-9.3-3.4-17.1-8.8-22.4L51,19.6z"/>
	</defs>
	<clipPath id="SVGID_4_">
		<use xlink:href="#SVGID_3_"  style="overflow:visible;"/>
	</clipPath>
	
		<linearGradient id="SVGID_5_" gradientUnits="userSpaceOnUse" x1="-198.8329" y1="228.1023" x2="-198.2878" y2="228.1023" gradientTransform="matrix(-12.8198 72.7044 72.7044 12.8198 -19074.5703 11539.7871)">
		<stop  offset="0" style="stop-color:#FFF200"/>
		<stop  offset="0.1538" style="stop-color:#FFF200"/>
		<stop  offset="1" style="stop-color:#00B6D6"/>
	</linearGradient>
	<polygon class="st2" points="78,12 68,68.7 28.7,61.8 38.7,5 	"/>
</g>
</svg>
